{
  "accessors": [
    {
      "bufferView": 2,
      "componentType": 5126,
      "count": 7020,
      "max": [
        35.001224517822266,
        35.41622543334961,
        3.5289931297302246
      ],
      "min": [
        -35.02377700805664,
        -35.38715362548828,
        -3.515303373336792
      ],
      "type": "VEC3"
    },
    {
      "bufferView": 2,
      "byteOffset": 84240,
      "componentType": 5126,
      "count": 7020,
      "max": [
        1.0,
        1.0,
        1.0
      ],
      "min": [
        -1.0,
        -1.0,
        -1.0
      ],
      "type": "VEC3"
    },
    {
      "bufferView": 1,
      "componentType": 5126,
      "count": 7020,
      "max": [
        1.0,
        1.0
      ],
      "min": [
        0.0,
        0.01000000536441803
      ],
      "type": "VEC2"
    },
    {
      "bufferView": 0,
      "componentType": 5125,
      "count": 20088,
      "type": "SCALAR"
    },
    {
      "bufferView": 2,
      "byteOffset": 168480,
      "componentType": 5126,
      "count": 7826,
      "max": [
        44.27621078491211,
        44.416221618652344,
        4.42899227142334
      ],
      "min": [
        -44.023773193359375,
        -44.583763122558594,
        -4.4153032302856445
      ],
      "type": "VEC3"
    },
    {
      "bufferView": 2,
      "byteOffset": 262392,
      "componentType": 5126,
      "count": 7826,
      "max": [
        1.0,
        1.0,
        1.0
      ],
      "min": [
        -1.0,
        -1.0,
        -1.0
      ],
      "type": "VEC3"
    },
    {
      "bufferView": 1,
      "byteOffset": 56160,
      "componentType": 5126,
      "count": 7826,
      "max": [
        1.0,
        1.0
      ],
      "min": [
        0.0,
        0.0
      ],
      "type": "VEC2"
    },
    {
      "bufferView": 0,
      "byteOffset": 80352,
      "componentType": 5125,
      "count": 40320,
      "type": "SCALAR"
    },
    {
      "bufferView": 2,
      "byteOffset": 356304,
      "componentType": 5126,
      "count": 7267,
      "max": [
        40.001216888427734,
        40.41622543334961,
        4.028992652893066
      ],
      "min": [
        -40.02377700805664,
        -40.387149810791016,
        -4.015302658081055
      ],
      "type": "VEC3"
    },
    {
      "bufferView": 2,
      "byteOffset": 443508,
      "componentType": 5126,
      "count": 7267,
      "max": [
        1.0,
        1.0,
        1.0
      ],
      "min": [
        -1.0,
        -1.0,
        -1.0
      ],
      "type": "VEC3"
    },
    {
      "bufferView": 1,
      "byteOffset": 118768,
      "componentType": 5126,
      "count": 7267,
      "max": [
        1.0,
        1.0
      ],
      "min": [
        0.0,
        0.0
      ],
      "type": "VEC2"
    },
    {
      "bufferView": 0,
      "byteOffset": 241632,
      "componentType": 5125,
      "count": 37440,
      "type": "SCALAR"
    },
    {
      "bufferView": 2,
      "byteOffset": 530712,
      "componentType": 5126,
      "count": 65533,
      "max": [
        -8.581647872924805,
        -8.918522834777832,
        0.12315845489501953
      ],
      "min": [
        -21.41339683532715,
        -12.920758247375488,
        -0.10976214706897736
      ],
      "type": "VEC3"
    },
    {
      "bufferView": 2,
      "byteOffset": 1317108,
      "componentType": 5126,
      "count": 65533,
      "max": [
        1.0,
        1.0,
        1.0
      ],
      "min": [
        -1.0,
        -1.0,
        -1.0
      ],
      "type": "VEC3"
    },
    {
      "bufferView": 1,
      "byteOffset": 176904,
      "componentType": 5126,
      "count": 65533,
      "max": [
        1.0,
        0.0
      ],
      "min": [
        0.0,
        0.0
      ],
      "type": "VEC2"
    },
    {
      "bufferView": 0,
      "byteOffset": 391392,
      "componentType": 5125,
      "count": 181137,
      "type": "SCALAR"
    },
    {
      "bufferView": 2,
      "byteOffset": 2103504,
      "componentType": 5126,
      "count": 65533,
      "max": [
        5.930318355560303,
        1.8237988948822021,
        0.12221811711788177
      ],
      "min": [
        -21.364269256591797,
        -10.690313339233398,
        -0.15090695023536682
      ],
      "type": "VEC3"
    },
    {
      "bufferView": 2,
      "byteOffset": 2889900,
      "componentType": 5126,
      "count": 65533,
      "max": [
        1.0,
        1.0,
        1.0
      ],
      "min": [
        -1.0,
        -1.0,
        -1.0
      ],
      "type": "VEC3"
    },
    {
      "bufferView": 1,
      "byteOffset": 701168,
      "componentType": 5126,
      "count": 65533,
      "max": [
        1.0,
        0.0
      ],
      "min": [
        0.0,
        0.0
      ],
      "type": "VEC2"
    },
    {
      "bufferView": 0,
      "byteOffset": 1115940,
      "componentType": 5125,
      "count": 98766,
      "type": "SCALAR"
    },
    {
      "bufferView": 2,
      "byteOffset": 3676296,
      "componentType": 5126,
      "count": 50515,
      "max": [
        -8.581647872924805,
        0.058972835540771484,
        0.12315845489501953
      ],
      "min": [
        -21.41339683532715,
        -12.920758247375488,
        -0.037624143064022064
      ],
      "type": "VEC3"
    },
    {
      "bufferView": 2,
      "byteOffset": 4282476,
      "componentType": 5126,
      "count": 50515,
      "max": [
        1.0,
        1.0,
        0.0
      ],
      "min": [
        -1.0,
        -1.0,
        0.0
      ],
      "type": "VEC3"
    },
    {
      "bufferView": 1,
      "byteOffset": 1225432,
      "componentType": 5126,
      "count": 50515,
      "max": [
        1.0,
        0.0
      ],
      "min": [
        0.0,
        0.0
      ],
      "type": "VEC2"
    },
    {
      "bufferView": 0,
      "byteOffset": 1511004,
      "componentType": 5125,
      "count": 128133,
      "type": "SCALAR"
    },
    {
      "bufferView": 2,
      "byteOffset": 4888656,
      "componentType": 5126,
      "count": 559,
      "max": [
        -13.2894868850708,
        -1.4383370876312256,
        1.4209295511245728
      ],
      "min": [
        -15.939908027648926,
        -4.088756084442139,
        -1.2294907569885254
      ],
      "type": "VEC3"
    },
    {
      "bufferView": 2,
      "byteOffset": 4895364,
      "componentType": 5126,
      "count": 559,
      "max": [
        1.0,
        1.0,
        1.0
      ],
      "min": [
        -1.0,
        -1.0,
        -1.0
      ],
      "type": "VEC3"
    },
    {
      "bufferView": 1,
      "byteOffset": 1629552,
      "componentType": 5126,
      "count": 559,
      "max": [
        1.0,
        1.0
      ],
      "min": [
        0.0,
        0.0
      ],
      "type": "VEC2"
    },
    {
      "bufferView": 0,
      "byteOffset": 2023536,
      "componentType": 5125,
      "count": 2880,
      "type": "SCALAR"
    },
    {
      "bufferView": 2,
      "byteOffset": 4902072,
      "componentType": 5126,
      "count": 559,
      "max": [
        -9.313857078552246,
        -1.968421459197998,
        0.8908447623252869
      ],
      "min": [
        -10.904108047485352,
        -3.558673620223999,
        -0.699406623840332
      ],
      "type": "VEC3"
    },
    {
      "bufferView": 2,
      "byteOffset": 4908780,
      "componentType": 5126,
      "count": 559,
      "max": [
        1.0,
        1.0,
        1.0
      ],
      "min": [
        -1.0,
        -1.0,
        -1.0
      ],
      "type": "VEC3"
    },
    {
      "bufferView": 1,
      "byteOffset": 1634024,
      "componentType": 5126,
      "count": 559,
      "max": [
        1.0,
        1.0
      ],
      "min": [
        0.0,
        0.0
      ],
      "type": "VEC2"
    },
    {
      "bufferView": 0,
      "byteOffset": 2035056,
      "componentType": 5125,
      "count": 2880,
      "type": "SCALAR"
    },
    {
      "bufferView": 2,
      "byteOffset": 4915488,
      "componentType": 5126,
      "count": 130,
      "max": [
        -10.771587371826172,
        -2.631025791168213,
        0.2282402217388153
      ],
      "min": [
        -13.42200756072998,
        -2.8960683345794678,
        -0.036801546812057495
      ],
      "type": "VEC3"
    },
    {
      "bufferView": 2,
      "byteOffset": 4917048,
      "componentType": 5126,
      "count": 130,
      "max": [
        1.0,
        1.0,
        1.0
      ],
      "min": [
        -1.0,
        -1.0,
        -1.0
      ],
      "type": "VEC3"
    },
    {
      "bufferView": 1,
      "byteOffset": 1638496,
      "componentType": 5126,
      "count": 130,
      "max": [
        1.0,
        1.0
      ],
      "min": [
        0.0,
        0.01000000536441803
      ],
      "type": "VEC2"
    },
    {
      "bufferView": 0,
      "byteOffset": 2046576,
      "componentType": 5125,
      "count": 372,
      "type": "SCALAR"
    },
    {
      "bufferView": 2,
      "byteOffset": 4918608,
      "componentType": 5126,
      "count": 96,
      "max": [
        -5.8362860679626465,
        -1.1468291282653809,
        0.062376510351896286
      ],
      "min": [
        -12.20376205444336,
        -10.542752265930176,
        -0.0009443238377571106
      ],
      "type": "VEC3"
    },
    {
      "bufferView": 2,
      "byteOffset": 4919760,
      "componentType": 5126,
      "count": 96,
      "max": [
        1.0,
        1.0,
        1.0
      ],
      "min": [
        -1.0,
        -1.0,
        -1.0
      ],
      "type": "VEC3"
    },
    {
      "bufferView": 1,
      "byteOffset": 1639536,
      "componentType": 5126,
      "count": 96,
      "max": [
        1.0,
        1.0
      ],
      "min": [
        0.0,
        0.0
      ],
      "type": "VEC2"
    },
    {
      "bufferView": 0,
      "byteOffset": 2048064,
      "componentType": 5125,
      "count": 144,
      "type": "SCALAR"
    }
  ],
  "asset": {
    "extras": {
      "author": "joh.mackell (https://sketchfab.com/joh.mackell)",
      "license": "CC-BY-4.0 (http://creativecommons.org/licenses/by/4.0/)",
      "source": "https://sketchfab.com/3d-models/chem-ionic-network-0e6de58b339e45d494a82191a3a17eae",
      "title": "Chem_Ionic_Network"
    },
    "generator": "Sketchfab-16.12.0",
    "version": "2.0"
  },
  "bufferViews": [
    {
      "buffer": 0,
      "byteLength": 2048640,
      "name": "floatBufferViews",
      "target": 34963
    },
    {
      "buffer": 0,
      "byteLength": 1640304,
      "byteOffset": 2048640,
      "byteStride": 8,
      "name": "floatBufferViews",
      "target": 34962
    },
    {
      "buffer": 0,
      "byteLength": 4920912,
      "byteOffset": 3688944,
      "byteStride": 12,
      "name": "floatBufferViews",
      "target": 34962
    }
  ],
  "buffers": [
    {
      "byteLength": 8609856,
      "uri": "scene.bin"
    }
  ],
  "materials": [
    {
      "doubleSided": true,
      "name": "intramolecular_bond",
      "pbrMetallicRoughness": {
        "baseColorFactor": [
          0.0,
          0.0,
          0.0,
          1.0
        ],
        "metallicFactor": 0.0
      }
    },
    {
      "doubleSided": true,
      "name": "chlorine",
      "pbrMetallicRoughness": {
        "baseColorFactor": [
          0.0171475,
          0.800251,
          0.0584229,
          1.0
        ],
        "metallicFactor": 0.0,
        "roughnessFactor": 0.8702626188205732
      }
    },
    {
      "doubleSided": true,
      "name": "sodium",
      "pbrMetallicRoughness": {
        "baseColorFactor": [
          0.48836,
          0.101021,
          0.800339,
          1.0
        ],
        "metallicFactor": 0.0,
        "roughnessFactor": 0.9477073073463792
      }
    },
    {
      "doubleSided": true,
      "name": "text",
      "pbrMetallicRoughness": {
        "baseColorFactor": [
          1.0,
          0.910605,
          0.000295246,
          1.0
        ],
        "metallicFactor": 0.0,
        "roughnessFactor": 0.8068292150654706
      }
    },
    {
      "doubleSided": true,
      "name": "blue",
      "pbrMetallicRoughness": {
        "baseColorFactor": [
          0.0,
          0.00997309,
          1.0,
          1.0
        ],
        "metallicFactor": 0.0,
        "roughnessFactor": 0.9822606569285286
      }
    }
  ],
  "meshes": [
    {
      "name": "NaCl Network_intramolecular bond_0",
      "primitives": [
        {
          "attributes": {
            "NORMAL": 1,
            "POSITION": 0,
            "TEXCOORD_0": 2
          },
          "indices": 3,
          "material": 0,
          "mode": 4
        }
      ]
    },
    {
      "name": "NaCl Network_chlorine_0",
      "primitives": [
        {
          "attributes": {
            "NORMAL": 5,
            "POSITION": 4,
            "TEXCOORD_0": 6
          },
          "indices": 7,
          "material": 1,
          "mode": 4
        }
      ]
    },
    {
      "name": "NaCl Network_sodium_0",
      "primitives": [
        {
          "attributes": {
            "NORMAL": 9,
            "POSITION": 8,
            "TEXCOORD_0": 10
          },
          "indices": 11,
          "material": 2,
          "mode": 4
        }
      ]
    },
    {
      "name": "Label_text_0",
      "primitives": [
        {
          "attributes": {
            "NORMAL": 13,
            "POSITION": 12,
            "TEXCOORD_0": 14
          },
          "indices": 15,
          "material": 3,
          "mode": 4
        }
      ]
    },
    {
      "name": "Label_text_0",
      "primitives": [
        {
          "attributes": {
            "NORMAL": 17,
            "POSITION": 16,
            "TEXCOORD_0": 18
          },
          "indices": 19,
          "material": 3,
          "mode": 4
        }
      ]
    },
    {
      "name": "Label_text_0",
      "primitives": [
        {
          "attributes": {
            "NORMAL": 21,
            "POSITION": 20,
            "TEXCOORD_0": 22
          },
          "indices": 23,
          "material": 3,
          "mode": 4
        }
      ]
    },
    {
      "name": "Label_chlorine_0",
      "primitives": [
        {
          "attributes": {
            "NORMAL": 25,
            "POSITION": 24,
            "TEXCOORD_0": 26
          },
          "indices": 27,
          "material": 1,
          "mode": 4
        }
      ]
    },
    {
      "name": "Label_sodium_0",
      "primitives": [
        {
          "attributes": {
            "NORMAL": 29,
            "POSITION": 28,
            "TEXCOORD_0": 30
          },
          "indices": 31,
          "material": 2,
          "mode": 4
        }
      ]
    },
    {
      "name": "Label_intramolecular bond_0",
      "primitives": [
        {
          "attributes": {
            "NORMAL": 33,
            "POSITION": 32,
            "TEXCOORD_0": 34
          },
          "indices": 35,
          "material": 0,
          "mode": 4
        }
      ]
    },
    {
      "name": "Label_blue_0",
      "primitives": [
        {
          "attributes": {
            "NORMAL": 37,
            "POSITION": 36,
            "TEXCOORD_0": 38
          },
          "indices": 39,
          "material": 4,
          "mode": 4
        }
      ]
    }
  ],
  "nodes": [
    {
      "children": [
        1
      ],
      "matrix": [
        1.0,
        0.0,
        0.0,
        0.0,
        0.0,
        2.220446049250313e-16,
        -1.0,
        0.0,
        0.0,
        1.0,
        2.220446049250313e-16,
        0.0,
        0.0,
        0.0,
        0.0,
        1.0
      ],
      "name": "Sketchfab_model"
    },
    {
      "children": [
        2
      ],
      "matrix": [
        0.009999999776482582,
        0.0,
        0.0,
        0.0,
        0.0,
        0.0,
        0.009999999776482582,
        0.0,
        0.0,
        -0.009999999776482582,
        0.0,
        0.0,
        0.0,
        0.0,
        0.0,
        1.0
      ],
      "name": "2429d1c938bd492bace28d76be6dfe7f.fbx"
    },
    {
      "children": [
        3,
        7
      ],
      "name": "RootNode"
    },
    {
      "children": [
        4,
        5,
        6
      ],
      "matrix": [
        -1.6292071068852957e-06,
        10.000001907348501,
        0.0,
        0.0,
        10.000001907344748,
        1.6292071068852957e-06,
        -8.662517016267853e-06,
        0.0,
        -8.662515364024054e-05,
        -1.411302890018409e-11,
        -99.99999999996247,
        0.0,
        30.840801239013672,
        0.0,
        -214.93516540527344,
        1.0
      ],
      "name": "NaCl Network"
    },
    {
      "mesh": 0,
      "name": "NaCl Network_intramolecular bond_0"
    },
    {
      "mesh": 1,
      "name": "NaCl Network_chlorine_0"
    },
    {
      "mesh": 2,
      "name": "NaCl Network_sodium_0"
    },
    {
      "children": [
        8,
        9,
        10,
        11,
        12,
        13,
        14
      ],
      "matrix": [
        70.71067657322372,
        -2.7472886045718875e-13,
        -70.71067966408575,
        0.0,
        3.090862363341284e-06,
        99.9999999999999,
        3.090861839710124e-06,
        0.0,
        70.71067966408569,
        -4.371139103402664e-06,
        70.71067657322365,
        0.0,
        64.7751693725586,
        801.6278076171875,
        -252.63429260253906,
        1.0
      ],
      "name": "Label"
    },
    {
      "mesh": 3,
      "name": "Label_text_0"
    },
    {
      "mesh": 4,
      "name": "Label_text_0"
    },
    {
      "mesh": 5,
      "name": "Label_text_0"
    },
    {
      "mesh": 6,
      "name": "Label_chlorine_0"
    },
    {
      "mesh": 7,
      "name": "Label_sodium_0"
    },
    {
      "mesh": 8,
      "name": "Label_intramolecular bond_0"
    },
    {
      "mesh": 9,
      "name": "Label_blue_0"
    }
  ],
  "scene": 0,
  "scenes": [
    {
      "name": "Sketchfab_Scene",
      "nodes": [
        0
      ]
    }
  ]
}
